# xmcd
#
# Track frame offsets: 
#        150
#        13586
#        25060
#        36741
#        46390
#        60570
#        79287
#        94140
#        105061
#        119896
#        132112
#        144405
#        156295
#        168035
#        177443
#        188601
#        200531
#        211641
#        223353
#        234729
#        246590
#        256947
#        268277
#        279584
#        291869
#        304063
#        319497
#
# Disc length: 4431 seconds
#
# Revision: 0
# Processed by: cddbd v1.5.2PL0 Copyright (c) Steve Scherf et al.
# Submitted via: ExactAudioCopy v0.99pb4
#
DISCID=9a114d1b
DTITLE=Bobby "Blue" Bland - The Best Of
DYEAR=2008
DGENRE=R&B
TTITLE0=Farther Up The Road
TTITLE1=Ain't That Lovin' You
TTITLE2=I'm Too Far Gone (To Turn Around)
TTITLE3=Poverty
TTITLE4=Yolanda
TTITLE5=Stormy Monday Blues
TTITLE6=I Wouldn't Treat A Dog (The Way You Treated Me) 
TTITLE7=I'll Take Care Of You
TTITLE8=Chains Of Love
TTITLE9=I Pity The Fool
TTITLE10=Cry, Cry, Cry
TTITLE11=Little Boy Blue
TTITLE12=I'm Not Ashamed
TTITLE13=Lead Me On
TTITLE14=Don't Cry No More
TTITLE15=Turn On Your Love Light
TTITLE16=Who Will The Next Fool Be?
TTITLE17=Yield Not To Temptation
TTITLE18=Call On Me
TTITLE19=That's The Way Love Is
TTITLE20=Sometimes You Gotta Cry A Little
TTITLE21=The Feeling Is Gone
TTITLE22=Ain't Nothing You Can Do
TTITLE23=Share Your Love With Me
TTITLE24=Ain't Doin' Too Bad, Part 1
TTITLE25=Blind Man
TTITLE26=Black Night
EXTD=Sean P.
EXTT0=
EXTT1=
EXTT2=
EXTT3=
EXTT4=
EXTT5=
EXTT6=
EXTT7=
EXTT8=
EXTT9=
EXTT10=
EXTT11=
EXTT12=
EXTT13=
EXTT14=
EXTT15=
EXTT16=
EXTT17=
EXTT18=
EXTT19=
EXTT20=
EXTT21=
EXTT22=
EXTT23=
EXTT24=
EXTT25=
EXTT26=
PLAYORDER=
